<mxfile host="Electron" modified="2024-08-12T17:10:21.646Z" agent="Mozilla/5.0 (Windows NT 10.0; Win64; x64) AppleWebKit/537.36 (KHTML, like Gecko) draw.io/24.0.4 Chrome/120.0.6099.109 Electron/28.1.0 Safari/537.36" etag="bkYpQjrbfxJ2xywG6-4O" version="24.0.4" type="device">
  <diagram name="Page-1" id="ecw9FoG95bQOw1s2NnbU">
    <mxGraphModel dx="1430" dy="825" grid="1" gridSize="10" guides="1" tooltips="1" connect="1" arrows="1" fold="1" page="1" pageScale="1" pageWidth="1100" pageHeight="850" math="0" shadow="0">
      <root>
        <mxCell id="0" />
        <mxCell id="1" parent="0" />
        <mxCell id="OzNWH8DGC0_GQPN6JCz_-25" style="edgeStyle=orthogonalEdgeStyle;rounded=0;orthogonalLoop=1;jettySize=auto;html=1;" parent="1" source="OzNWH8DGC0_GQPN6JCz_-1" target="OzNWH8DGC0_GQPN6JCz_-13" edge="1">
          <mxGeometry relative="1" as="geometry" />
        </mxCell>
        <mxCell id="OzNWH8DGC0_GQPN6JCz_-35" value="Triggers one or more" style="edgeLabel;html=1;align=center;verticalAlign=middle;resizable=0;points=[];" parent="OzNWH8DGC0_GQPN6JCz_-25" vertex="1" connectable="0">
          <mxGeometry x="-0.0667" y="-2" relative="1" as="geometry">
            <mxPoint as="offset" />
          </mxGeometry>
        </mxCell>
        <mxCell id="OzNWH8DGC0_GQPN6JCz_-1" value="&lt;b&gt;Composition&lt;/b&gt;&lt;div&gt;A template to define how to create resources.&lt;/div&gt;" style="rounded=0;whiteSpace=wrap;html=1;verticalAlign=top;" parent="1" vertex="1">
          <mxGeometry x="370" y="230" width="190" height="60" as="geometry" />
        </mxCell>
        <mxCell id="OzNWH8DGC0_GQPN6JCz_-36" style="edgeStyle=orthogonalEdgeStyle;rounded=0;orthogonalLoop=1;jettySize=auto;html=1;" parent="1" source="OzNWH8DGC0_GQPN6JCz_-2" target="OzNWH8DGC0_GQPN6JCz_-3" edge="1">
          <mxGeometry relative="1" as="geometry" />
        </mxCell>
        <mxCell id="OzNWH8DGC0_GQPN6JCz_-37" value="Generates" style="edgeLabel;html=1;align=center;verticalAlign=middle;resizable=0;points=[];" parent="OzNWH8DGC0_GQPN6JCz_-36" vertex="1" connectable="0">
          <mxGeometry x="0.0991" y="1" relative="1" as="geometry">
            <mxPoint x="-8" y="1" as="offset" />
          </mxGeometry>
        </mxCell>
        <mxCell id="OzNWH8DGC0_GQPN6JCz_-2" value="&lt;b&gt;Composite Resource Definition (XRD)&lt;/b&gt;&lt;div&gt;A custom API specification.&lt;/div&gt;" style="whiteSpace=wrap;html=1;verticalAlign=top;" parent="1" vertex="1">
          <mxGeometry x="40" y="75" width="220" height="50" as="geometry" />
        </mxCell>
        <mxCell id="OzNWH8DGC0_GQPN6JCz_-32" style="edgeStyle=orthogonalEdgeStyle;rounded=0;orthogonalLoop=1;jettySize=auto;html=1;" parent="1" source="OzNWH8DGC0_GQPN6JCz_-3" target="OzNWH8DGC0_GQPN6JCz_-1" edge="1">
          <mxGeometry relative="1" as="geometry" />
        </mxCell>
        <mxCell id="OzNWH8DGC0_GQPN6JCz_-33" value="Triggers" style="edgeLabel;html=1;align=center;verticalAlign=middle;resizable=0;points=[];" parent="OzNWH8DGC0_GQPN6JCz_-32" vertex="1" connectable="0">
          <mxGeometry x="-0.0286" y="3" relative="1" as="geometry">
            <mxPoint x="-3" y="-4" as="offset" />
          </mxGeometry>
        </mxCell>
        <mxCell id="OzNWH8DGC0_GQPN6JCz_-3" value="&lt;b&gt;Composite Resource (XR)&lt;/b&gt;&lt;div&gt;(Custom Resource Definition&lt;b&gt;)&lt;/b&gt;&lt;br&gt;Created by using the custom API defined in a CompositeResourceDefinition. XRs use the Composition template to create new managed resources.&lt;/div&gt;" style="whiteSpace=wrap;html=1;verticalAlign=top;" parent="1" vertex="1">
          <mxGeometry x="347.5" y="50" width="235" height="100" as="geometry" />
        </mxCell>
        <mxCell id="OzNWH8DGC0_GQPN6JCz_-11" style="edgeStyle=orthogonalEdgeStyle;rounded=0;orthogonalLoop=1;jettySize=auto;html=1;" parent="1" source="OzNWH8DGC0_GQPN6JCz_-5" target="OzNWH8DGC0_GQPN6JCz_-3" edge="1">
          <mxGeometry relative="1" as="geometry" />
        </mxCell>
        <mxCell id="OzNWH8DGC0_GQPN6JCz_-30" value="Creates" style="edgeLabel;html=1;align=center;verticalAlign=middle;resizable=0;points=[];" parent="OzNWH8DGC0_GQPN6JCz_-11" vertex="1" connectable="0">
          <mxGeometry x="-0.1429" y="-1" relative="1" as="geometry">
            <mxPoint as="offset" />
          </mxGeometry>
        </mxCell>
        <mxCell id="OzNWH8DGC0_GQPN6JCz_-5" value="&lt;b&gt;Claim (XRC)&lt;/b&gt;&lt;div&gt;Like a Composite Resource, but with namespace scoping.&lt;/div&gt;" style="whiteSpace=wrap;html=1;verticalAlign=top;" parent="1" vertex="1">
          <mxGeometry x="670" y="65" width="180" height="70" as="geometry" />
        </mxCell>
        <mxCell id="OzNWH8DGC0_GQPN6JCz_-16" style="edgeStyle=orthogonalEdgeStyle;rounded=0;orthogonalLoop=1;jettySize=auto;html=1;" parent="1" source="OzNWH8DGC0_GQPN6JCz_-13" target="OzNWH8DGC0_GQPN6JCz_-15" edge="1">
          <mxGeometry relative="1" as="geometry" />
        </mxCell>
        <mxCell id="OzNWH8DGC0_GQPN6JCz_-13" value="&lt;b&gt;Function&lt;/b&gt;" style="shape=process;whiteSpace=wrap;html=1;backgroundOutline=1;" parent="1" vertex="1">
          <mxGeometry x="405" y="370" width="120" height="60" as="geometry" />
        </mxCell>
        <mxCell id="OzNWH8DGC0_GQPN6JCz_-15" value="&lt;b&gt;Managed Resourcse&lt;/b&gt;" style="whiteSpace=wrap;html=1;verticalAlign=top;" parent="1" vertex="1">
          <mxGeometry x="370" y="510" width="190" height="60" as="geometry" />
        </mxCell>
        <mxCell id="OzNWH8DGC0_GQPN6JCz_-17" value="&lt;b&gt;Managed Resourcse&lt;/b&gt;" style="whiteSpace=wrap;html=1;verticalAlign=top;" parent="1" vertex="1">
          <mxGeometry x="380" y="520" width="190" height="60" as="geometry" />
        </mxCell>
        <mxCell id="OzNWH8DGC0_GQPN6JCz_-18" value="&lt;b&gt;Managed Resourcse&lt;/b&gt;" style="whiteSpace=wrap;html=1;verticalAlign=top;" parent="1" vertex="1">
          <mxGeometry x="390" y="530" width="190" height="60" as="geometry" />
        </mxCell>
        <mxCell id="OzNWH8DGC0_GQPN6JCz_-19" value="&lt;b&gt;Managed Resourcse&lt;/b&gt;" style="whiteSpace=wrap;html=1;verticalAlign=top;" parent="1" vertex="1">
          <mxGeometry x="400" y="540" width="190" height="60" as="geometry" />
        </mxCell>
        <mxCell id="OzNWH8DGC0_GQPN6JCz_-27" style="edgeStyle=orthogonalEdgeStyle;rounded=0;orthogonalLoop=1;jettySize=auto;html=1;" parent="1" source="OzNWH8DGC0_GQPN6JCz_-26" target="OzNWH8DGC0_GQPN6JCz_-5" edge="1">
          <mxGeometry relative="1" as="geometry" />
        </mxCell>
        <mxCell id="OzNWH8DGC0_GQPN6JCz_-29" value="Creates" style="edgeLabel;html=1;align=center;verticalAlign=middle;resizable=0;points=[];" parent="OzNWH8DGC0_GQPN6JCz_-27" vertex="1" connectable="0">
          <mxGeometry x="-0.0353" relative="1" as="geometry">
            <mxPoint as="offset" />
          </mxGeometry>
        </mxCell>
        <mxCell id="OzNWH8DGC0_GQPN6JCz_-26" value="User" style="shape=umlActor;verticalLabelPosition=bottom;verticalAlign=top;html=1;outlineConnect=0;" parent="1" vertex="1">
          <mxGeometry x="940" y="70" width="30" height="60" as="geometry" />
        </mxCell>
        <mxCell id="OzNWH8DGC0_GQPN6JCz_-39" value="&lt;b&gt;Function&lt;/b&gt;" style="shape=process;whiteSpace=wrap;html=1;backgroundOutline=1;" parent="1" vertex="1">
          <mxGeometry x="415" y="380" width="120" height="60" as="geometry" />
        </mxCell>
        <mxCell id="OzNWH8DGC0_GQPN6JCz_-40" value="&lt;b&gt;Composition Function&lt;/b&gt;" style="shape=process;whiteSpace=wrap;html=1;backgroundOutline=1;" parent="1" vertex="1">
          <mxGeometry x="425" y="390" width="120" height="60" as="geometry" />
        </mxCell>
      </root>
    </mxGraphModel>
  </diagram>
</mxfile>
